<svg width="214" height="43" viewBox="0 0 214 43" fill="none" xmlns="http://www.w3.org/2000/svg">
<g clip-path="url(#clip0_3864_20527)">
<path d="M10.2261 11.0615H16.8755V32.0493H10.2261V11.0615Z" fill="white"/>
<path d="M16.8752 21.6659L16.8752 11.0615L32.5014 32.0493H24.633L16.8752 21.6659Z" fill="white"/>
<path d="M24.387 11.038L27.9703 11.038L27.9425 23.5713L24.387 18.7829V11.038Z" fill="white"/>
<path d="M29.155 11.0333L32.9481 11.0333V30.2417L29.155 25.1121V11.0333Z" fill="white"/>
<path d="M23.7957 43C33.9847 41.9543 42.0915 33.874 43.1406 23.7181H40.4542C39.5005 32.5273 32.8084 39.5461 23.7957 40.5442V43Z" fill="white"/>
<path d="M0 23.7181C1.04911 33.874 9.15585 41.9543 19.3449 43V40.5442C10.3321 39.5461 3.65598 32.5114 2.68635 23.7181H0Z" fill="white"/>
<path d="M43.1406 19.2819C42.0915 9.12601 33.9847 1.04569 23.7957 0V2.45578C32.8084 3.45394 39.4846 10.4886 40.4542 19.2819H43.1406Z" fill="white"/>
<path d="M19.3449 0C9.15585 1.04569 1.04911 9.12601 0 19.2819H2.68635C3.64009 10.4727 10.3321 3.45394 19.3449 2.45578V0Z" fill="white"/>
</g>
<path d="M59.5209 15.659H59.3112V29.8869H56.7639V12.464H60.6297L67.3724 26.5671H67.5822V12.464H70.1294V29.8869H66.2636L59.5209 15.659Z" fill="white"/>
<path d="M81.7152 30.1865C80.2168 30.1865 78.9082 29.9119 77.7894 29.3628C76.6707 28.8136 75.8116 28.0398 75.2122 27.0414C74.6329 26.0263 74.3432 24.8364 74.3432 23.4719C74.3432 22.124 74.6428 20.9425 75.2422 19.9274C75.8415 18.8957 76.6806 18.1052 77.7595 17.5561C78.8383 16.9903 80.087 16.7074 81.5054 16.7074C82.9039 16.7074 84.1226 16.982 85.1615 17.5311C86.2203 18.0636 87.0394 18.8125 87.6188 19.7776C88.1982 20.7262 88.4879 21.8161 88.4879 23.0476V24.021H77.1901V24.5452C77.1901 25.6435 77.5996 26.5421 78.4188 27.2411C79.2379 27.9233 80.3467 28.2645 81.7452 28.2645C82.7441 28.2645 83.6131 28.0814 84.3523 27.7153C85.0915 27.3492 85.6809 26.825 86.1204 26.1428L87.9784 27.3409C87.479 28.2062 86.6798 28.8968 85.581 29.4127C84.5022 29.9286 83.2136 30.1865 81.7152 30.1865ZM81.5354 18.5296C80.7163 18.5296 79.9671 18.6876 79.2878 19.0038C78.6285 19.32 78.1091 19.7693 77.7295 20.3517C77.3699 20.9175 77.1901 21.5499 77.1901 22.2488V22.4235H85.611V22.1489C85.611 21.0673 85.2314 20.1936 84.4722 19.528C83.733 18.8624 82.7541 18.5296 81.5354 18.5296Z" fill="white"/>
<path d="M99.5042 30.1865C97.9259 30.1865 96.5374 29.9702 95.3387 29.5375C94.14 29.0882 93.1311 28.4725 92.312 27.6904L94.0801 26.3924C94.8193 27.0414 95.6284 27.5323 96.5075 27.8651C97.3865 28.1979 98.4054 28.3643 99.5642 28.3643C100.763 28.3643 101.712 28.1896 102.411 27.8401C103.11 27.4907 103.46 26.9665 103.46 26.2676C103.46 25.7018 103.23 25.3024 102.771 25.0694C102.311 24.8198 101.672 24.6451 100.853 24.5452L98.4254 24.2457C97.4464 24.1126 96.5874 23.9378 95.8482 23.7215C95.109 23.5052 94.4797 23.1474 93.9602 22.6482C93.4408 22.1489 93.1811 21.475 93.1811 20.6263C93.1811 19.3616 93.7604 18.3964 94.9192 17.7308C96.0779 17.0485 97.6263 16.7074 99.5642 16.7074C102.241 16.7074 104.339 17.3897 105.857 18.7542L104.209 20.1271C103.73 19.6778 103.11 19.3034 102.351 19.0038C101.592 18.6876 100.623 18.5296 99.4443 18.5296C98.2855 18.5296 97.3965 18.696 96.7772 19.0288C96.1778 19.3616 95.8781 19.8359 95.8781 20.4516C95.8781 21.0174 96.1079 21.4251 96.5674 21.6747C97.0269 21.9243 97.6562 22.099 98.4554 22.1989L100.913 22.4984C101.912 22.6149 102.771 22.7896 103.49 23.0226C104.229 23.2389 104.858 23.5967 105.378 24.0959C105.897 24.5785 106.157 25.2525 106.157 26.1178C106.157 27.3825 105.558 28.381 104.359 29.1131C103.16 29.8287 101.542 30.1865 99.5042 30.1865Z" fill="white"/>
<path d="M117.293 25.6935C117.293 26.3757 117.423 26.8833 117.683 27.2161C117.943 27.5489 118.322 27.7652 118.822 27.8651C119.321 27.9483 120.06 27.9899 121.039 27.9899H123.467V29.8869H120.949C119.451 29.8869 118.242 29.7705 117.323 29.5375C116.424 29.2879 115.735 28.8552 115.255 28.2395C114.776 27.6238 114.536 26.7668 114.536 25.6685V18.904H109.562V17.0069H114.536V12.464H117.293V17.0069H124.156V18.904H117.293V25.6935Z" fill="white"/>
<path d="M137.42 24.3206L145.511 30.8355H142.005L133.973 24.3206H137.42ZM135.322 30.1865C132.785 30.1865 130.907 29.421 129.688 27.89C128.469 26.3424 127.86 24.1042 127.86 21.1755C127.86 18.2467 128.469 16.0168 129.688 14.4858C130.907 12.9382 132.785 12.1644 135.322 12.1644C137.859 12.1644 139.737 12.9382 140.956 14.4858C142.175 16.0168 142.784 18.2467 142.784 21.1755C142.784 24.1042 142.175 26.3424 140.956 27.89C139.737 29.421 137.859 30.1865 135.322 30.1865ZM135.322 28.1646C136.86 28.1646 137.979 27.682 138.678 26.7169C139.398 25.7517 139.757 24.3871 139.757 22.6232V19.7277C139.757 17.9638 139.398 16.5992 138.678 15.634C137.979 14.6689 136.86 14.1863 135.322 14.1863C133.784 14.1863 132.655 14.6689 131.936 15.634C131.236 16.5992 130.887 17.9638 130.887 19.7277V22.6232C130.887 24.3871 131.236 25.7517 131.936 26.7169C132.655 27.682 133.784 28.1646 135.322 28.1646Z" fill="white"/>
<path d="M156.767 27.7403H156.647C156.268 28.4891 155.728 29.0882 155.029 29.5375C154.33 29.9702 153.391 30.1865 152.212 30.1865C150.594 30.1865 149.305 29.7538 148.346 28.8885C147.387 28.0232 146.908 26.825 146.908 25.2941V17.0069H149.635V24.8947C149.635 26.0096 149.924 26.85 150.504 27.4158C151.103 27.9649 151.972 28.2395 153.111 28.2395C154.13 28.2395 154.989 28.0398 155.688 27.6404C156.407 27.2244 156.767 26.6337 156.767 25.8682V17.0069H159.524V29.8869H156.767V27.7403Z" fill="white"/>
<path d="M177.073 29.8869C176.174 29.8869 175.495 29.6956 175.036 29.3128C174.596 28.9301 174.326 28.4142 174.226 27.7652H174.077C173.757 28.5307 173.208 29.1298 172.428 29.5625C171.649 29.9785 170.65 30.1865 169.432 30.1865C167.833 30.1865 166.555 29.837 165.596 29.1381C164.657 28.4392 164.187 27.4907 164.187 26.2925C164.187 23.7631 166.415 22.4984 170.87 22.4984H174.047V21.3252C174.047 20.4266 173.737 19.7443 173.118 19.2784C172.518 18.8125 171.649 18.5795 170.51 18.5795C169.532 18.5795 168.712 18.7376 168.053 19.0537C167.394 19.3699 166.854 19.8275 166.435 20.4266L164.667 19.2784C165.106 18.5462 165.846 17.9388 166.884 17.4562C167.923 16.957 169.202 16.7074 170.72 16.7074C172.578 16.7074 174.047 17.0984 175.125 17.8806C176.224 18.6627 176.774 19.7527 176.774 21.1505V27.0913C176.774 27.3409 176.874 27.5572 177.073 27.7403C177.293 27.9067 177.553 27.9899 177.853 27.9899H178.871V29.8869H177.073ZM170.061 28.3893C171.2 28.3893 172.149 28.1729 172.908 27.7403C173.667 27.3076 174.047 26.7585 174.047 26.0928V24.071H170.9C169.581 24.071 168.603 24.2374 167.963 24.5702C167.324 24.8864 167.004 25.344 167.004 25.9431V26.4673C167.004 27.083 167.274 27.5572 167.813 27.89C168.353 28.2229 169.102 28.3893 170.061 28.3893Z" fill="white"/>
<path d="M182.995 29.8869V17.0069H185.752V19.1536H185.872C186.252 18.4048 186.791 17.814 187.49 17.3813C188.19 16.932 189.129 16.7074 190.307 16.7074C191.926 16.7074 193.214 17.14 194.173 18.0054C195.132 18.8707 195.612 20.0688 195.612 21.5998V29.8869H192.885V21.9992C192.885 20.8842 192.585 20.0522 191.986 19.503C191.406 18.9373 190.547 18.6544 189.408 18.6544C188.389 18.6544 187.52 18.8624 186.801 19.2784C186.102 19.6778 185.752 20.2602 185.752 21.0257V29.8869H182.995Z" fill="white"/>
<path d="M207.137 25.6935C207.137 26.3757 207.267 26.8833 207.527 27.2161C207.787 27.5489 208.166 27.7652 208.666 27.8651C209.165 27.9483 209.904 27.9899 210.883 27.9899H213.311V29.8869H210.793C209.295 29.8869 208.086 29.7705 207.167 29.5375C206.268 29.2879 205.579 28.8552 205.1 28.2395C204.62 27.6238 204.38 26.7668 204.38 25.6685V18.904H199.406V17.0069H204.38V12.464H207.137V17.0069H214V18.904H207.137V25.6935Z" fill="white"/>
<defs>
<clipPath id="clip0_3864_20527">
<rect width="43.1406" height="43" fill="white"/>
</clipPath>
</defs>
</svg>
