<svg width="44" height="43" viewBox="0 0 44 43" fill="none" xmlns="http://www.w3.org/2000/svg">
<g clip-path="url(#clip0_3864_20528)">
<path d="M10.2261 11.0615H16.8755V32.0493H10.2261V11.0615Z" fill="white"/>
<path d="M16.8752 21.6659L16.8752 11.0615L32.5014 32.0493H24.633L16.8752 21.6659Z" fill="white"/>
<path d="M24.387 11.038L27.9703 11.038L27.9425 23.5713L24.387 18.7829V11.038Z" fill="white"/>
<path d="M29.155 11.0333L32.9481 11.0333V30.2417L29.155 25.1121V11.0333Z" fill="white"/>
<path d="M23.7957 43C33.9847 41.9543 42.0915 33.874 43.1406 23.7181H40.4542C39.5005 32.5273 32.8084 39.5461 23.7957 40.5442V43Z" fill="white"/>
<path d="M0 23.7181C1.04911 33.874 9.15585 41.9543 19.3449 43V40.5442C10.3321 39.5461 3.65598 32.5114 2.68635 23.7181H0Z" fill="white"/>
<path d="M43.1406 19.2819C42.0915 9.12601 33.9847 1.04569 23.7957 0V2.45578C32.8084 3.45394 39.4846 10.4886 40.4542 19.2819H43.1406Z" fill="white"/>
<path d="M19.3449 0C9.15585 1.04569 1.04911 9.12601 0 19.2819H2.68635C3.64009 10.4727 10.3321 3.45394 19.3449 2.45578V0Z" fill="white"/>
</g>
<defs>
<clipPath id="clip0_3864_20528">
<rect width="43.1406" height="43" fill="white"/>
</clipPath>
</defs>
</svg>
